<svg width="24" height="24" viewBox="0 0 24 24" fill="none" xmlns="http://www.w3.org/2000/svg">
<path d="M2.89994 12C2.89994 11.5029 2.497 11.1 1.99994 11.1C1.50288 11.1 1.09994 11.5029 1.09994 12H2.89994ZM4.9289 4.92889L4.29251 4.2925L4.29251 4.2925L4.9289 4.92889ZM3.8578 5.99999H2.9578C2.9578 6.49705 3.36075 6.89999 3.8578 6.89999V5.99999ZM4.7578 1.5C4.7578 1.00294 4.35486 0.6 3.8578 0.6C3.36075 0.6 2.9578 1.00294 2.9578 1.5H4.7578ZM8.36 6.89999C8.85706 6.89999 9.26 6.49705 9.26 5.99999C9.26 5.50294 8.85706 5.09999 8.36 5.09999V6.89999ZM21.0999 12C21.0999 17.0258 17.0257 21.1 11.9999 21.1V22.9C18.0198 22.9 22.8999 18.0199 22.8999 12H21.0999ZM11.9999 21.1C6.97415 21.1 2.89994 17.0258 2.89994 12H1.09994C1.09994 18.0199 5.98004 22.9 11.9999 22.9V21.1ZM11.9999 2.89999C17.0257 2.89999 21.0999 6.9742 21.0999 12H22.8999C22.8999 5.98009 18.0198 1.09999 11.9999 1.09999V2.89999ZM5.56529 5.56529C7.21305 3.91755 9.48681 2.89999 11.9999 2.89999V1.09999C8.99025 1.09999 6.26403 2.32099 4.29251 4.2925L5.56529 5.56529ZM4.29251 4.2925L3.22141 5.3636L4.4942 6.63639L5.5653 5.56529L4.29251 4.2925ZM4.7578 5.99999V1.5H2.9578V5.99999H4.7578ZM3.8578 6.89999H8.36V5.09999H3.8578V6.89999Z" fill="#262F56"/>
<path d="M12 6.5V12L15 15" stroke="#262F56" stroke-width="1.8" stroke-linecap="round" stroke-linejoin="round"/>
</svg>
