<svg width="22" height="24" viewBox="0 0 22 24" fill="none" xmlns="http://www.w3.org/2000/svg">
<path d="M7.57398 1.45187C4.85598 2.38187 2.53998 4.41587 1.24998 6.98987C0.799979 7.87787 0.475979 8.81987 0.277979 9.79787C-0.214021 12.2219 0.127979 14.8079 1.24398 17.0159C1.96998 18.4559 3.01398 19.7399 4.27398 20.7419C5.46798 21.6899 6.85398 22.3979 8.32998 22.7879C10.19 23.2859 12.17 23.2739 14.042 22.8479C15.734 22.4579 17.336 21.6479 18.614 20.4719C19.964 19.2299 20.93 17.5979 21.44 15.8399C21.998 13.9259 22.07 11.8799 21.722 9.91187C18.224 9.91187 14.72 9.91187 11.222 9.91187C11.222 11.3639 11.222 12.8159 11.222 14.2679C13.25 14.2679 15.278 14.2679 17.306 14.2679C17.072 15.6599 16.244 16.9319 15.074 17.7179C14.336 18.2159 13.49 18.5339 12.614 18.6899C11.738 18.8399 10.826 18.8579 9.94998 18.6839C9.05598 18.5039 8.20998 18.1319 7.46598 17.6099C6.27798 16.7759 5.37198 15.5579 4.90998 14.1839C4.43598 12.7859 4.42998 11.2319 4.90998 9.83987C5.24598 8.85587 5.79798 7.94987 6.52998 7.20587C7.42998 6.28187 8.59998 5.62187 9.86598 5.35187C10.946 5.12387 12.086 5.16587 13.142 5.48387C14.042 5.75387 14.87 6.25187 15.548 6.89987C16.232 6.21587 16.916 5.53187 17.6 4.84787C17.96 4.48187 18.338 4.12787 18.686 3.74987C17.648 2.78987 16.424 2.01587 15.092 1.52387C12.692 0.635866 9.99198 0.617866 7.57398 1.45187Z" fill="white"/>
<path d="M7.574 1.45207C9.986 0.618072 12.692 0.636072 15.092 1.51807C16.424 2.01007 17.642 2.77807 18.686 3.74407C18.338 4.12207 17.96 4.47607 17.6 4.84207C16.916 5.52607 16.232 6.21007 15.548 6.89407C14.87 6.24607 14.042 5.75407 13.142 5.47807C12.086 5.16007 10.946 5.11207 9.866 5.34607C8.606 5.61607 7.436 6.27607 6.53 7.20007C5.798 7.93807 5.246 8.85007 4.91 9.83407C3.692 8.88607 2.474 7.94407 1.25 6.99607C2.54 4.41607 4.856 2.38207 7.574 1.45207Z" fill="#EA4335"/>
<path d="M0.283979 9.79201C0.481979 8.82001 0.805979 7.87201 1.25598 6.98401C2.47398 7.93201 3.69198 8.87401 4.91598 9.82201C4.43598 11.22 4.43598 12.774 4.91598 14.166C3.69798 15.114 2.47998 16.062 1.26198 17.004C0.13398 14.802 -0.208021 12.216 0.283979 9.79201Z" fill="#FBBC05"/>
<path d="M11.222 9.90601C14.72 9.90601 18.224 9.90601 21.7219 9.90601C22.0699 11.868 21.9919 13.914 21.4399 15.834C20.9299 17.592 19.9639 19.224 18.6139 20.466C17.432 19.548 16.25 18.63 15.068 17.712C16.238 16.926 17.066 15.654 17.3 14.262C15.272 14.262 13.244 14.262 11.216 14.262C11.222 12.81 11.222 11.358 11.222 9.90601Z" fill="#4285F4"/>
<path d="M1.25 17.0101C2.468 16.0681 3.686 15.1201 4.904 14.1721C5.372 15.5461 6.272 16.7641 7.46 17.5981C8.204 18.1201 9.056 18.4921 9.944 18.6721C10.82 18.8521 11.726 18.8281 12.608 18.6781C13.484 18.5221 14.33 18.2041 15.068 17.7061C16.25 18.6241 17.432 19.5421 18.614 20.4601C17.336 21.6421 15.734 22.4461 14.042 22.8361C12.17 23.2621 10.19 23.2741 8.33 22.7761C6.854 22.3861 5.468 21.6841 4.274 20.7301C3.02 19.7341 1.976 18.4501 1.25 17.0101Z" fill="#34A853"/>
</svg>
