<svg width="25" height="25" viewBox="0 0 25 25" fill="none" xmlns="http://www.w3.org/2000/svg">
<path fill-rule="evenodd" clip-rule="evenodd" d="M1.32173 2.65646C0.788264 2.79941 0.471682 3.34774 0.614623 3.88121C0.757565 4.41468 1.3059 4.73126 1.83937 4.58832L2.80529 4.3295C3.33876 4.18655 3.8871 4.50314 4.03004 5.0366L7.16848 16.7494C5.61697 17.6249 4.79097 19.4675 5.27337 21.2679C5.84513 23.4017 8.03848 24.6681 10.1723 24.0963C11.9727 23.6139 13.1555 21.9772 13.1379 20.1959L22.4359 17.7045C22.9694 17.5615 23.2859 17.0132 23.143 16.4797C23.0001 15.9463 22.4517 15.6297 21.9182 15.7726L12.6202 18.264C11.907 16.9999 10.5517 16.2175 9.10033 16.2318L5.96189 4.51897C5.53307 2.91857 3.88805 1.96882 2.28766 2.39765L1.32173 2.65646ZM8.61943 18.3007C9.68636 18.0149 10.783 18.648 11.0689 19.715C11.3548 20.7819 10.7216 21.8786 9.65471 22.1644C8.58778 22.4503 7.4911 21.8172 7.20522 20.7502C6.91933 19.6833 7.5525 18.5866 8.61943 18.3007ZM11.4039 3.57842C9.27003 4.15019 8.0037 6.34354 8.57547 8.4774L9.86956 13.307C10.4413 15.4409 12.6347 16.7072 14.7685 16.1355L19.5982 14.8414C21.732 14.2696 22.9984 12.0762 22.4266 9.94238L21.1325 5.11276C20.5607 2.97889 18.3674 1.71256 16.2335 2.28433L11.4039 3.57842ZM15.304 6.01566C14.8735 5.76713 14.3231 5.91462 14.0746 6.34508L12.6603 8.79457C12.4118 9.22503 12.5593 9.77546 12.9898 10.024C13.4202 10.2725 13.9707 10.125 14.2192 9.69457L14.547 9.12677L15.2787 11.8576C15.4074 12.3378 15.9009 12.6227 16.381 12.494C16.8611 12.3654 17.1461 11.8719 17.0174 11.3918L16.2857 8.6609L16.8535 8.98872C17.2839 9.23724 17.8344 9.08976 18.0829 8.65929C18.3314 8.22883 18.1839 7.6784 17.7535 7.42987L15.304 6.01566Z" fill="#262F56"/>
</svg>
